<svg width="104" height="65" viewBox="0 0 104 65" fill="none" xmlns="http://www.w3.org/2000/svg">
<g clip-path="url(#clip0_16_294)">
<path d="M33.4877 43.9158C33.4877 43.9158 33.4676 43.8757 33.4476 43.8958C33.4276 43.9158 33.4343 43.9493 33.4409 43.9828C33.4409 44.0163 33.4676 44.1033 33.5143 44.0698C33.5611 44.0364 33.501 43.9493 33.4877 43.9158Z" fill="white"/>
<path d="M49.2975 33.384V33.3771H49.2905L49.2975 33.384Z" fill="white"/>
<path d="M2.26514e-05 49.1183C-0.0133244 49.1584 0.0200432 49.1718 0.0534107 49.1651C0.0867783 49.1651 0.120146 49.1316 0.0934518 49.0982C0.0667578 49.0647 0.0133697 49.0781 2.26514e-05 49.1183Z" fill="white"/>
<path d="M88.0303 33.5914C88.0303 33.5914 88.0303 33.5311 87.9969 33.5445C87.9635 33.5579 87.9502 33.6047 87.9836 33.6248C88.0103 33.6449 88.0303 33.6181 88.0303 33.5914Z" fill="white"/>
<path d="M103.833 13.0629C103.76 13.083 103.666 13.1031 103.613 13.1433C103.56 13.1902 103.586 13.2504 103.653 13.2236C103.72 13.1968 103.78 13.1165 103.833 13.0562V13.0629Z" fill="white"/>
<path d="M21.4954 22.517C21.4954 22.517 21.482 22.4969 21.4687 22.5036C21.4553 22.517 21.4553 22.5371 21.4687 22.5438C21.4887 22.5438 21.4954 22.5304 21.4887 22.517H21.4954Z" fill="white"/>
<path d="M7.29413 46.3664C7.28078 46.42 7.31415 46.4133 7.35419 46.3932C7.39423 46.3731 7.45429 46.3396 7.47431 46.2928C7.49433 46.2459 7.47431 46.2258 7.4276 46.2459C7.38088 46.266 7.31415 46.3128 7.3008 46.3664H7.29413Z" fill="white"/>
<path d="M12.019 24.2243C12.019 24.2243 11.9456 24.1976 11.9456 24.231C11.9456 24.2645 12.019 24.2578 12.019 24.2243Z" fill="white"/>
<path d="M104 15.0448C103.98 14.2213 103.426 14.0204 102.852 13.7057C102.085 13.2906 101.064 13.2973 100.216 13.4312C99.3686 13.5651 98.5077 13.5316 97.6468 13.6321C95.3311 13.8999 93.3825 15.7278 91.0601 15.8483C89.3383 15.942 91.574 13.8597 90.2326 13.5919C90.039 13.5517 89.7721 13.6388 89.5319 13.7057C88.5642 13.9869 87.5965 14.4824 86.6823 14.8908C85.768 15.2993 84.827 15.2055 83.866 15.1988C83.5257 15.1988 83.1586 15.1319 82.8116 15.1252C82.5714 15.1252 82.3245 15.0716 82.0909 15.0917C80.1756 15.2457 78.287 15.3796 76.4051 15.7947C75.364 16.0291 74.4564 16.5379 73.4754 16.9999C73.2552 17.107 73.0483 17.3414 72.8014 17.5088C72.2608 17.8837 71.6468 18.2587 71.0329 18.5533C70.9728 18.5801 70.8727 18.5934 70.806 18.5667C70.7392 18.5332 70.7392 18.4261 70.6792 18.3926C69.7716 17.8837 68.8306 17.4686 67.8029 17.2677C66.9153 17.0937 65.7475 16.6518 64.9066 16.8057C63.1515 17.1204 62.0904 18.0578 60.6089 18.8546C60.5955 18.8613 60.5955 18.868 60.5955 18.8747C60.4554 18.9751 60.3286 19.0621 60.1951 19.1626C59.9882 19.3099 59.7747 19.4639 59.5745 19.6246C59.4677 19.7116 59.3743 19.8254 59.2808 19.9259C59.2875 19.8924 59.3008 19.8589 59.3008 19.8254C59.3008 19.7919 59.3008 19.7518 59.2942 19.7183C59.2942 19.6915 59.2808 19.6647 59.2742 19.6379C59.2742 19.6179 59.2675 19.6112 59.2608 19.5911C59.2541 19.571 59.2408 19.5509 59.2341 19.5308C59.2274 19.5174 59.2141 19.4773 59.1941 19.4973C59.174 19.5174 59.1674 19.5643 59.1607 19.5978C59.154 19.6246 59.1474 19.658 59.1407 19.6848C59.1073 19.8254 59.0739 19.9794 59.0339 20.1133C59.0206 20.1535 59.0005 20.1535 58.9805 20.1736C58.9605 20.1937 58.9472 20.2071 58.9271 20.2272C58.9071 20.2472 58.9004 20.2539 58.8737 20.274C58.847 20.2941 58.8204 20.3209 58.7803 20.3544C58.7336 20.3811 58.6735 20.428 58.6068 20.4481C58.5467 20.4615 58.4733 20.4749 58.4066 20.4749C58.3399 20.4749 58.2865 20.4347 58.2131 20.4347C58.133 20.4347 58.0996 20.5285 58.0062 20.5218C57.9128 20.5218 57.8527 20.736 57.7926 20.4749C57.6725 19.9459 57.3188 20.5887 57.8393 19.7049C58.5801 18.4328 59.6212 17.0066 60.749 15.6407C61.2161 15.0783 62.1905 13.7727 62.7844 13.1299C64.1258 11.3891 65.5406 9.59468 66.8753 7.9342C68.2834 6.18667 69.558 4.56636 70.8994 2.81883C70.9061 2.81213 70.9128 2.80544 70.9194 2.79205C70.9194 2.78535 70.9528 2.75857 70.9528 2.75187C71.4533 2.12919 71.9872 1.44625 72.0873 0.656179C72.1607 0.0937565 71.7403 0.220971 71.3932 0.0334969C71.3399 0.00671485 71.2531 0.0334969 71.2064 0.0334969C71.0329 0.0201059 70.8193 -0.00667616 70.6592 1.93451e-05C70.3322 0.0201059 69.9985 -0.00667617 69.7182 0.140625C69.3178 0.361577 69.1243 0.703048 68.8373 1.03113C68.7706 1.10478 68.7505 1.19182 68.6905 1.26547C67.3157 2.96613 65.9877 4.56636 64.5262 6.23354C63.0647 7.90072 61.5365 9.63486 60.075 11.3489C59.8814 11.5766 59.6345 11.9046 59.4276 12.1524C58.3932 13.391 57.3121 14.9578 56.2711 16.1027C55.0431 17.4485 53.9754 18.5868 52.4271 19.417C50.8855 20.2472 49.2105 20.2673 47.5621 20.7159C47.4954 20.736 47.442 20.6891 47.382 20.6891C47.0016 20.6891 46.6212 20.6891 46.2408 20.6891C45.8604 20.6891 45.5 20.6891 45.1263 20.7025C44.9595 20.7025 44.7993 20.7159 44.6325 20.736C44.4656 20.7561 44.2854 20.7762 44.1119 20.8164C43.7649 20.8967 43.4246 20.9971 43.0775 21.1043C42.904 21.1578 42.7305 21.2315 42.5503 21.2917C42.4702 21.3185 42.3568 21.3654 42.27 21.3989C41.9364 21.5328 41.6094 21.6667 41.2757 21.8073C41.1088 21.8742 40.9487 21.9479 40.7818 22.0215C40.615 22.0952 40.4548 22.1689 40.2813 22.2559C39.7875 22.5103 39.2937 22.7714 38.7998 23.0393C38.4528 23.2267 38.0791 23.441 37.7387 23.6419C37.5052 23.7758 37.2849 23.9164 37.058 24.057C36.9846 24.0972 36.9179 24.144 36.8445 24.1909C36.6309 23.7356 36.3974 23.3071 36.1171 22.8853C36.1037 22.8585 36.0637 22.8451 36.037 22.8116C36.0103 22.7848 36.017 22.7447 35.9769 22.7179C35.1027 22.0751 34.2018 21.506 33.2007 21.0842C33.0472 21.0239 32.9271 21.1177 32.7937 21.1712C32.6535 21.2248 32.5401 21.3252 32.4133 21.3989C32.3932 21.3118 32.3666 21.2248 32.3465 21.1377C30.8784 21.5796 29.4502 22.0818 28.0288 22.6777C27.9887 22.6978 27.9353 22.7581 27.8753 22.7581C27.8152 22.7581 27.7952 22.6978 27.7151 22.7313C27.6417 22.7714 27.5816 22.8585 27.5082 22.9121C27.3014 23.0727 27.1012 23.22 26.8409 23.3138C26.7741 23.3406 26.6874 23.2736 26.594 23.3138C26.5005 23.354 26.3938 23.4544 26.307 23.5146C25.5062 24.0704 24.6053 24.6328 23.7177 24.9743C23.3239 25.1216 23.2238 24.9274 22.9969 24.6931C22.77 24.4587 22.77 24.144 22.6166 23.8762C22.8234 23.9766 23.017 24.0838 23.2172 24.1909C23.384 23.7825 23.5508 23.354 23.6443 22.9254C23.6643 22.825 23.5976 22.7982 23.5308 22.7514C23.4708 22.7045 23.3974 22.7112 23.3373 22.7045C23.2706 22.6978 23.2105 22.7045 23.1571 22.7045C22.7967 22.738 22.4497 22.7781 22.096 22.8183C22.096 22.8987 22.0827 22.979 22.076 23.066C21.9359 23.0326 21.8091 23.0058 21.6689 22.9723C21.6222 22.9589 21.5621 22.9388 21.5154 22.9187C20.9015 23.0326 20.3008 23.1732 19.6869 23.2937C18.7993 23.4678 17.8917 23.6486 16.9975 23.7825C16.1032 23.9164 15.2223 23.99 14.3347 24.0905C13.8008 24.1507 13.2937 24.1976 12.7598 24.2578C12.7598 24.3717 12.7531 24.4788 12.7464 24.5926C12.4328 24.5926 12.1191 24.5926 11.7988 24.5926C11.7854 24.5926 11.7854 24.5725 11.7654 24.5725C9.50977 24.9006 7.04058 25.1751 4.87169 25.6103C3.99078 25.7844 4.0108 26.1862 3.46357 26.7084C3.32343 26.8423 3.49027 27.0566 3.41019 27.2173C3.52364 27.2173 3.64376 27.2039 3.75053 27.2039C3.85731 27.2039 3.97076 27.1838 4.05752 27.2574C4.14427 27.3311 4.11758 27.4583 4.16429 27.532C4.20433 27.6123 4.25105 27.552 4.29109 27.532C4.33113 27.5119 4.3645 27.4985 4.38452 27.4784C4.40454 27.4583 4.43791 27.465 4.43791 27.465C4.67148 27.4449 4.7916 27.465 5.03185 27.4181C7.80136 26.8758 10.5775 26.4339 13.4071 26.1393C14.2613 26.0522 15.1889 26.0121 16.0698 25.9384C16.5103 25.9049 16.9507 25.8849 17.4246 25.838C17.7582 25.8045 18.212 25.6907 18.2654 26.1795C18.2788 26.3 18.1853 26.4205 18.1053 26.5276C17.1443 27.8333 16.0832 29.0317 14.9153 30.17C14.7151 30.3642 14.5016 30.5248 14.328 30.7592C12.9466 32.5603 11.9189 34.3145 10.4708 36.1357C9.04263 37.9234 7.72127 39.9387 6.09961 41.5657C5.43226 42.2353 4.69817 42.6638 4.12425 43.4472C3.41686 44.4113 2.75618 45.3956 2.04879 46.3597C2.00208 46.42 1.95536 46.4869 1.94201 46.5673C1.93534 46.6409 1.95536 46.7079 1.98873 46.7748C2.23565 47.2368 2.89633 47.2034 3.41686 47.1096C4.29109 46.9422 5.19201 47.4846 6.03288 47.0159C6.32651 46.8552 6.5067 46.5539 6.68688 46.2727C7.30084 45.3152 9.86347 43.2061 9.7567 42.1616C9.91686 42.1416 9.93688 42.2353 10.037 42.3357C10.1171 42.4161 10.1237 42.4495 10.1971 42.5165C11.018 41.4586 11.8589 40.4007 12.6797 39.3428C13.1335 38.7603 13.5739 38.1845 14.0211 37.602C13.9744 37.5819 13.9143 37.5551 13.8743 37.535C13.8342 37.5217 13.8008 37.5283 13.7741 37.515C13.7408 37.5016 13.7741 37.4949 13.7475 37.4748C13.7141 37.4547 13.654 37.4279 13.614 37.4011C13.6941 37.2873 13.7808 37.1668 13.8743 37.0664C13.961 36.9659 14.0478 36.8722 14.1545 36.7918C14.1812 36.7718 14.1946 36.8253 14.2213 36.832C14.248 36.8387 14.2613 36.832 14.288 36.832C14.3147 36.832 14.3281 36.832 14.3681 36.8387C14.4081 36.8387 14.4949 36.8856 14.5416 36.8923C17.0108 34.2409 19.3399 31.2413 22.0093 28.8376C24.6787 26.4406 27.6017 24.9542 30.7249 23.2937C30.8784 23.2134 31.0519 23.2602 31.2654 23.3339C31.479 23.4075 31.7259 23.3807 31.9061 23.6486C32.0929 23.9164 32.3866 24.1373 32.3198 24.5725C32.113 25.9317 31.7926 27.3512 31.3655 28.6836C31.3455 28.7505 31.2788 28.8041 31.2387 28.851C31.1987 28.8978 31.2521 28.8711 31.2454 28.8844C31.1253 29.1121 30.9851 29.333 30.8183 29.5272C30.7382 29.621 30.6047 29.6143 30.5247 29.7013C30.0442 30.2235 29.5904 30.7726 29.1299 31.3082C29.1566 31.335 29.1833 31.3752 29.21 31.402C29.2367 31.4287 29.27 31.422 29.2767 31.4622C29.2834 31.5024 29.2634 31.5292 29.2367 31.556C29.1432 31.6631 29.0431 31.7702 28.9497 31.8706C28.9163 31.9041 28.8897 31.9443 28.8429 31.951C28.7895 31.951 28.7228 31.884 28.6761 31.9242C28.4959 32.0782 28.3624 32.2523 28.229 32.4398C28.2156 32.4532 28.2824 32.4532 28.269 32.4799C28.2223 32.5938 28.1489 32.7009 28.0755 32.8013C28.0087 32.9018 27.8953 32.9754 27.8352 33.0758C27.7685 33.1763 27.7885 33.0424 27.7685 33.0624C27.4548 33.357 27.1879 33.7186 26.921 34.0467C26.0534 35.1113 25.1058 36.1357 24.2916 37.227C23.5709 38.1912 22.8501 39.0616 22.4364 40.2066C22.1561 40.9899 21.9425 41.8135 22.2295 42.6504C22.6833 43.956 23.4174 44.8198 24.652 45.5429C25.4194 45.9982 26.347 46.0919 27.3681 46.2191C27.4682 46.2325 29.0231 45.9848 28.7695 46.7079C29.19 46.4401 29.4769 46.1254 29.8373 45.8174C30.1576 45.717 30.4779 45.6366 30.7916 45.5094C31.1053 45.3822 31.4656 45.3286 31.7526 45.1344C32.2998 44.7662 32.7202 44.331 33.114 43.7887C33.2741 43.5677 33.3342 43.2262 33.4477 42.9718C33.5144 43.1258 33.5611 43.2999 33.6479 43.4539C33.6746 43.494 33.7013 43.5074 33.748 43.474C33.9148 43.3668 34.055 43.2262 34.2285 43.1057C34.5555 42.8647 34.9158 42.6571 35.2762 42.4696C35.2762 42.4696 35.2962 42.4696 35.3029 42.4629C35.3096 42.4629 35.3296 42.4763 35.3363 42.4763C35.4497 42.4429 35.5098 42.6102 35.6099 42.5968C35.8368 42.55 35.7634 42.9785 35.7567 42.9919C35.5632 43.4338 35.2695 43.648 35.0093 43.9895C34.7423 44.331 34.5021 44.7126 34.2151 45.0273C33.9949 45.2684 33.8014 45.4893 33.6212 45.737C33.5144 45.891 33.4877 46.0383 33.3943 46.1856C33.3542 46.2459 33.2875 46.266 33.2741 46.3396C33.2341 46.5271 33.2341 46.7146 33.2141 46.9021C33.114 46.9021 33.0072 46.9155 32.9071 46.9155C32.9271 47.0694 32.9538 47.2234 32.9738 47.3774C32.8671 47.3975 32.7403 47.4109 32.6335 47.431C32.3732 47.4913 32.1263 47.5314 31.8794 47.6252C31.826 47.6453 31.8527 47.7323 31.8126 47.7725C31.6258 47.9666 31.4323 48.1139 31.1853 48.2278C31.172 48.2278 31.132 48.2278 31.0919 48.2211C31.0519 48.2144 30.9384 48.2077 30.9051 48.1943C30.8717 48.1809 30.8984 48.0872 30.8583 48.0939C30.6381 48.1474 30.4112 48.2278 30.2043 48.3148C29.6571 48.5425 29.1432 48.8036 28.6227 49.0915C28.5827 49.1116 28.556 49.1718 28.5026 49.1919C28.4492 49.212 28.4025 49.212 28.3357 49.2254C28.269 49.2388 28.1956 49.2254 28.1155 49.2522C27.8486 49.3124 27.575 49.3794 27.3481 49.5334C27.2346 49.6137 27.2146 49.7543 27.1278 49.8615C27.0277 49.8213 26.921 49.7811 26.8209 49.741C26.8008 49.7343 26.7808 49.7343 26.7608 49.741C26.6674 49.7677 26.5873 49.8213 26.5406 49.895C26.4939 49.9686 26.5005 50.0623 26.4538 50.1293C26.4071 50.1963 26.3203 50.1896 26.2603 50.223C21.8291 52.2585 17.6381 54.6555 13.6474 57.4609C13.614 57.4877 13.5873 57.5412 13.5406 57.5613C13.5005 57.5814 13.4338 57.5479 13.4004 57.5881C12.9933 58.0099 12.6864 58.4518 12.4328 58.9875C12.3126 59.2419 12.1925 59.59 12.0724 59.8244C11.9523 60.0654 11.8055 60.2797 11.7054 60.4806C11.5052 60.8823 11.385 61.2371 11.2582 61.6523C11.2382 61.7125 11.2783 61.7862 11.2582 61.8464C11.2382 61.9067 11.1314 61.9067 11.1248 61.9736C11.1047 62.2348 11.1381 62.4825 11.1248 62.7436C11.2382 62.8642 11.2449 63.1521 11.3784 63.2391C12.6997 64.0626 13.5539 65.1004 15.2557 65.0067C17.6181 64.8862 19.9471 63.8484 22.2228 63.1654C22.4163 62.978 22.6032 62.7704 22.8034 62.603C23.2238 62.2482 23.6509 61.967 24.1314 61.7192C24.1915 61.6857 24.2783 61.746 24.325 61.6924C24.4851 61.5184 24.6119 61.2572 24.712 61.0631C24.8121 60.8689 24.8455 60.7417 24.9323 60.5542C25.0457 60.6279 25.1458 60.6881 25.2793 60.7417C25.2993 60.7484 25.366 60.6747 25.3927 60.6479C27.8419 58.3983 30.538 55.4054 32.4867 52.9749C33.1607 52.1313 34.0082 51.0466 34.2952 50.7051C41.1155 42.5433 47.5288 34.3882 54.7829 26.8624C56.538 25.0479 57.7993 23.9499 59.3743 22.1019C59.4076 22.0617 59.421 22.0684 59.4677 22.0483C59.5144 22.0282 59.5678 22.0885 59.6145 22.055C59.6545 22.0215 59.5678 21.9814 59.5945 21.9613C59.6812 21.8876 59.808 21.9144 59.9015 21.8676C60.4821 21.5663 61.0026 21.2382 61.5231 20.8364C61.7233 20.6824 61.8968 20.4883 62.0904 20.3142C62.1104 20.2941 62.1371 20.2539 62.1838 20.2673C62.2372 20.2807 62.3239 20.2874 62.3773 20.3008C62.7377 20.0129 63.0914 19.7116 63.4518 19.4304C63.6253 19.2965 63.7988 19.2027 63.9923 19.109C64.0257 19.0956 64.0657 19.109 64.0924 19.1023C64.1191 19.0956 64.1592 19.0956 64.1792 19.1023C64.1992 19.1023 64.2526 19.0889 64.2526 19.0889C64.3327 19.0354 64.4061 18.9349 64.4661 18.8814C64.5262 18.8345 64.5396 18.9081 64.5796 18.8613C64.6196 18.8144 64.6196 18.7207 64.6597 18.6671C64.7598 18.7006 64.9266 18.7608 65.0134 18.801C65.3204 18.9483 65.594 19.0889 65.8809 19.2496C65.921 19.2697 65.9076 19.2898 65.9477 19.3032C65.9877 19.3166 66.0211 19.3032 66.0678 19.3032C66.1145 19.3032 66.1879 19.2831 66.2413 19.2898C66.2947 19.2898 66.3481 19.33 66.3814 19.3567C66.5616 19.5107 66.7018 19.6848 66.8219 19.8723C66.8553 19.9259 66.882 19.9861 66.882 20.0196C66.7752 21.1712 66.4282 22.1019 65.8542 23.0928C65.8542 23.0928 65.8542 23.1129 65.8542 23.1196C65.8476 23.22 65.8209 23.3272 65.7675 23.4008C65.7141 23.4745 65.6474 23.5347 65.5739 23.5749C65.5005 23.6151 65.5206 23.4946 65.4872 23.5146C65.2536 23.6619 65.0668 23.8628 64.8332 24.0637C64.2926 24.7198 63.7054 25.3559 63.1848 26.0255C62.424 26.9896 61.6299 27.9538 60.9292 28.9447C60.2285 29.9356 59.8214 31.0069 59.2007 32.0447C58.9738 32.4264 58.6268 32.7745 58.4867 33.2097C58.0996 34.4216 58.3265 35.6268 58.3465 36.8655C58.3465 37.2003 58.2931 37.5417 58.3932 37.8564C58.4934 38.1711 58.6535 38.4122 58.8737 38.6532C59.6479 39.5035 60.3753 40.5078 61.4564 40.9364C62.6643 41.4184 63.7854 41.1238 65.0134 40.9564C66.2413 40.7891 67.5026 40.5815 68.5437 39.8852C72.5411 37.1936 75.5508 33.6115 78.5472 29.9022C79.248 29.0384 79.7618 28.1412 80.4892 27.3177C81.0498 26.6749 81.5236 26.1058 82.1643 25.5166C83.4723 24.298 84.6735 23.0594 86.075 21.9412C88.2906 20.1736 90.5662 18.3658 93.2357 17.4217C94.4235 16.9999 95.6782 16.7522 96.9328 16.6986C100.857 16.5245 96.4723 21.0708 95.6047 22.0952C93.6694 24.3784 91.7608 26.6816 89.7921 28.938C87.9569 31.0404 85.5478 32.9285 83.8794 35.0912C83.3856 35.734 82.7783 36.2964 82.0976 36.7383C81.5637 37.0864 80.9631 37.3877 80.596 37.91C80.5226 38.0104 80.4625 38.1242 80.4492 38.2515C80.4225 38.526 80.6561 38.7536 80.903 38.8674C81.7439 39.2491 82.6915 38.7068 83.6124 38.6398C84.1263 38.5996 84.6335 38.7135 85.1474 38.6934C86.6355 38.6398 87.0226 37.3141 87.6699 36.283C88.7043 34.6225 90.3327 33.6918 91.6073 32.2925C93.4359 30.2972 95.231 28.3153 96.806 26.1058C97.7269 24.8136 98.7146 23.8092 99.6889 22.5974C100.069 22.1287 100.556 21.7136 100.924 21.2181C101.738 20.1066 102.719 18.8747 103.399 17.7297C103.927 16.8392 104.067 15.9956 104.04 15.0783L104 15.0448ZM27.3347 53.5909C27.1946 53.7984 27.0678 54.0261 26.9143 54.2069C26.1268 55.1576 25.4061 56.1619 24.5652 57.0525C23.3907 58.2978 22.3162 59.6101 20.9282 60.6078C19.5401 61.6054 18.1386 62.3218 16.4769 62.8106C15.5893 63.0717 14.7218 62.7771 14.2613 61.8799C14.0678 61.505 14.1946 60.976 14.5416 60.6345C16.7105 58.5121 18.9661 56.5235 21.5221 54.8362C22.9969 53.8587 24.652 53.1222 26.1869 52.2317C26.2002 52.2585 26.1669 52.2719 26.1936 52.2852C26.2202 52.3053 26.267 52.2786 26.287 52.2518C26.307 52.225 26.2536 52.225 26.267 52.2183C26.4738 52.1179 26.634 52.0107 26.8609 51.917C27.5283 51.6291 28.2423 51.4282 28.9764 51.3345C28.4025 52.0643 27.8553 52.8209 27.3414 53.5842L27.3347 53.5909ZM48.8368 26.2129C48.7033 26.5477 48.6166 26.8959 48.443 27.2173C47.9625 28.0877 47.5555 29.0585 46.9682 29.862C45.8137 31.4354 44.7059 33.0959 43.2177 34.3413C40.1612 36.899 36.9179 39.0817 33.6412 41.3046C32.3866 42.1549 31.0052 42.8111 29.6237 43.3735C29.21 43.5409 28.7895 43.3668 28.4225 43.3735C28.0555 43.3869 27.7084 43.5409 27.4081 43.4873C26.7141 43.3802 26.0334 43.0187 26.0934 42.2688C26.2603 40.1195 27.4548 38.305 28.7095 36.7182C30.2711 34.7363 31.8327 33.0691 33.3743 31.1676C34.2552 30.0829 34.9959 28.9916 35.9969 28.0341C36.731 27.3244 37.6453 26.9695 38.4995 26.4205C39.2736 25.925 40.0611 25.3961 40.8286 24.8738C41.2623 24.5792 41.6828 24.2311 42.1766 24.0235C42.7772 23.7758 43.4179 23.6285 44.0652 23.5548C45.4333 23.3874 46.8147 23.3004 48.1828 23.2401C48.4697 23.2267 48.77 23.2134 48.9969 23.3874C49.404 23.6954 49.5308 24.0905 49.4708 24.5792C49.4107 25.068 49.1171 25.4563 48.9636 25.9116C48.9302 26.0188 48.8968 26.1192 48.8501 26.2263L48.8368 26.2129ZM75.384 28.2618C74.7567 29.1456 74.1761 30.1432 73.4887 30.9601C71.7269 33.0491 70.0986 35.0845 67.943 36.7785C66.7285 37.7292 65.2002 38.0372 63.7187 38.4055C63.3183 38.5059 62.8178 38.4724 62.5175 38.1845C61.5164 37.2337 61.1027 36.1892 61.3897 34.8434C61.6099 33.819 62.1438 32.9687 62.6176 32.0782C63.2115 30.9534 63.8855 30.1365 65 29.5004C65.7274 29.092 66.595 28.9983 67.4025 28.7706C68.21 28.543 69.0775 28.3957 69.9051 28.2216C70.8927 28.0073 71.8804 27.8734 72.8748 27.7127C72.9348 27.6993 73.0216 27.6993 73.0816 27.6926C73.3019 27.6726 73.5688 27.6257 73.7824 27.6324C74.2896 27.6458 74.7433 27.7127 75.2238 27.8065C75.3506 27.8333 75.4441 27.9136 75.5575 27.9672C75.5041 28.0475 75.4441 28.1814 75.3974 28.2484L75.384 28.2618ZM80.8296 21.6801C80.4892 22.1287 80.0021 22.6041 79.5016 23.0125C78.9009 23.4946 78.1602 23.9967 77.5062 24.4587C77.3127 24.5926 77.0724 24.7265 76.8455 24.8203C76.7054 24.8805 76.5318 24.914 76.3784 24.9408C75.8311 25.0345 75.2772 25.1216 74.73 25.2086C74.1895 25.2957 73.6622 25.3693 73.1217 25.463C73.115 25.5702 73.1017 25.6773 73.0816 25.7844C72.9882 25.7844 72.8748 25.7576 72.7813 25.7576C72.6012 25.7576 72.4343 25.7376 72.2608 25.7576C71.7803 25.8313 71.3065 25.9451 70.8393 26.0589C70.3655 26.1728 69.8917 26.2799 69.4179 26.3669C69.2911 26.387 69.171 26.3669 69.0508 26.3937C68.9374 26.4205 68.864 26.4808 68.7639 26.5343C68.6638 26.5879 68.5303 26.6615 68.4369 26.7017C68.3435 26.7419 68.23 26.7553 68.1566 26.7754C68.0832 26.7954 68.0565 26.7821 68.0098 26.7954C67.9631 26.8021 67.9564 26.8155 67.923 26.8289C67.4759 26.9896 67.0288 27.1101 66.5616 27.1704C66.8352 26.6147 67.1355 26.0589 67.5693 25.617C68.8773 24.2779 70.1653 23.0125 71.6068 21.8073C72.3342 21.1913 73.0683 20.6021 73.8958 20.0464C74.5899 19.5777 75.1104 18.9684 75.9846 18.6403C77.633 18.0109 79.2947 17.8034 81.0031 18.4997C81.557 18.7274 81.6971 19.2027 81.6237 19.7986C81.537 20.5017 81.2967 21.0775 80.8296 21.6935V21.6801Z" fill="white"/>
<path d="M97.2064 13.0161C97.2064 13.0161 97.2865 12.9625 97.2464 12.9357C97.213 12.9089 97.173 12.9558 97.1663 12.9893C97.1597 13.0161 97.1797 13.0228 97.2064 13.0161Z" fill="white"/>
<path d="M60.7423 18.7207C60.7556 18.7541 60.7957 18.7407 60.809 18.7207C60.8224 18.7006 60.8157 18.6872 60.7957 18.6805C60.769 18.6805 60.7289 18.6872 60.7423 18.7273V18.7207Z" fill="white"/>
<path d="M29.2903 30.0428C29.2903 30.0428 29.2903 30.0428 29.2903 30.0497C29.2903 30.0497 29.2903 30.0497 29.2834 30.0497L29.2903 30.0428Z" fill="white"/>
<path d="M61.0293 18.6939C61.0226 18.6939 61.0093 18.6805 61.0026 18.6671C60.9892 18.6537 60.9559 18.6202 60.9359 18.6336C60.9158 18.647 60.9359 18.6805 60.9425 18.6939C60.9492 18.7072 60.9492 18.7006 60.9559 18.7072C60.9559 18.7072 60.9692 18.7072 60.9759 18.7072C60.9759 18.7072 60.9759 18.7072 60.9826 18.7072C60.9826 18.7072 60.9826 18.7072 60.9892 18.7072C60.9959 18.7072 60.9959 18.7072 61.0026 18.7072C61.0026 18.7072 61.0159 18.7072 61.0226 18.7072C61.0226 18.7072 61.0226 18.7072 61.0293 18.7072V18.6939Z" fill="white"/>
<path d="M99.135 12.5742C99.135 12.5742 99.1216 12.5273 99.1016 12.5407C99.0816 12.5541 99.0883 12.5875 99.1016 12.5942C99.115 12.6009 99.1283 12.5942 99.1283 12.5742H99.135Z" fill="white"/>
<path d="M16.3901 27.7596C16.3901 27.7596 16.3634 27.7328 16.3367 27.7328C16.31 27.7328 16.2767 27.7395 16.29 27.773C16.3034 27.8064 16.3367 27.8198 16.3634 27.8131C16.3901 27.8131 16.4035 27.7864 16.3901 27.7596Z" fill="white"/>
<path d="M12.5128 32.9218C12.4794 32.9352 12.4461 32.9821 12.4728 33.0155C12.4995 33.049 12.5395 32.9955 12.5529 32.9821C12.5662 32.9687 12.5662 32.9754 12.5796 32.9687C12.5796 32.9687 12.5862 32.9687 12.5729 32.962C12.5529 32.9486 12.5462 32.9151 12.5128 32.9218Z" fill="white"/>
<path d="M79.8219 21.834C79.8219 21.834 79.8219 21.7872 79.7885 21.7939C79.7551 21.8006 79.7484 21.8407 79.7751 21.8608C79.8018 21.8809 79.8152 21.8608 79.8219 21.834Z" fill="white"/>
<path d="M73.3953 21.3252C73.3953 21.3252 73.3886 21.2984 73.3752 21.3051C73.3619 21.3051 73.3486 21.3118 73.3552 21.3319C73.3619 21.3453 73.3886 21.3453 73.3953 21.3319V21.3252Z" fill="white"/>
<path d="M73.2017 21.439C73.2017 21.439 73.2151 21.4055 73.2017 21.3988C73.1884 21.3921 73.175 21.3988 73.175 21.4189C73.175 21.4323 73.1884 21.4457 73.2017 21.439Z" fill="white"/>
<path d="M79.9153 21.6131C79.9153 21.6131 79.902 21.5729 79.8819 21.5729C79.8619 21.5729 79.8286 21.5863 79.8486 21.6131C79.8619 21.6399 79.902 21.6399 79.922 21.6131H79.9153Z" fill="white"/>
<path d="M61.1427 20.0667H61.1496L61.1427 20.0598V20.0667Z" fill="white"/>
<path d="M33.4009 46.1655C33.3809 46.1186 33.3742 46.1186 33.3609 46.1521C33.3476 46.1856 33.3476 46.2124 33.3609 46.2459C33.3742 46.2793 33.4276 46.3262 33.461 46.3597C33.4477 46.3061 33.4143 46.2124 33.3943 46.1655H33.4009Z" fill="white"/>
<path d="M48.9172 35.3196C48.9172 35.3196 48.9172 35.3125 48.9172 35.3054C48.9172 35.3054 48.9102 35.3054 48.9102 35.3125L48.9172 35.3196Z" fill="white"/>
<path d="M1.40146 51.5286C1.38811 51.5688 1.43483 51.5822 1.46152 51.5755C1.49489 51.5688 1.52825 51.542 1.50823 51.5019C1.48154 51.4684 1.40813 51.4885 1.40146 51.5286Z" fill="white"/>
<path d="M86.6289 35.2117C86.6289 35.2117 86.6289 35.1447 86.5888 35.1581C86.5555 35.1715 86.5488 35.2318 86.5755 35.2519C86.6089 35.2719 86.6222 35.2385 86.6222 35.2117H86.6289Z" fill="white"/>
<path d="M101.417 15.3461C101.317 15.3729 101.217 15.393 101.117 15.4198C101.137 15.4599 101.164 15.5068 101.19 15.547C101.264 15.48 101.344 15.4131 101.417 15.3461Z" fill="white"/>
<path d="M22.2562 24.3315C22.2562 24.3315 22.2428 24.3047 22.2295 24.3181C22.2161 24.3315 22.2161 24.3583 22.2295 24.3649C22.2495 24.3716 22.2562 24.3449 22.2495 24.3315H22.2562Z" fill="white"/>
<path d="M6.32648 49.3325C6.30645 49.3861 6.35317 49.3794 6.38654 49.3593C6.4199 49.3392 6.49999 49.2923 6.52001 49.2455C6.54003 49.2053 6.52001 49.1718 6.46662 49.1986C6.4199 49.2187 6.33982 49.2856 6.32648 49.3325Z" fill="white"/>
<path d="M12.9133 26.0255C12.8665 26.0255 12.8198 26.0388 12.7798 26.0388C12.8332 26.0522 12.8665 26.0388 12.9133 26.0255Z" fill="white"/>
<path d="M62.057 45.737C61.9635 45.2817 61.7967 44.9269 61.4897 44.572C61.1827 44.2171 60.8491 43.9761 60.3686 43.8757C59.8881 43.7752 59.3942 43.7351 58.8737 43.8154C56.9784 44.1033 55.5636 44.7528 54.249 46.1789C54.1689 46.266 54.1555 46.4066 54.1155 46.5204C54.0421 46.7414 54.002 46.969 53.962 47.1966C53.942 47.3105 53.942 47.4176 53.9353 47.5314C53.9353 47.5314 53.9353 47.5314 53.9353 47.5381C53.9553 47.7658 53.9553 47.9532 54.002 48.1876C54.0488 48.4219 54.1222 48.6964 54.2223 48.9241C54.3157 49.1517 54.4425 49.3392 54.5826 49.5401C54.6293 49.607 54.6894 49.6673 54.7495 49.7275C54.9564 49.9083 55.1766 50.0623 55.4235 50.2029C55.4836 50.2364 55.5436 50.2632 55.6237 50.29C55.7972 50.3435 55.9841 50.3904 56.1776 50.4105C56.3711 50.4306 56.578 50.444 56.7782 50.4507C56.7916 50.4507 56.8116 50.4507 56.8183 50.4507C56.8917 50.4373 56.9718 50.4373 57.0452 50.4172C57.826 50.1962 58.6335 50.0355 59.3475 49.6405C60.2084 49.1651 60.8691 48.5023 61.5298 47.7925C61.6632 47.6519 61.7767 47.4645 61.8367 47.3038C62.0369 46.7815 62.1637 46.2861 62.0503 45.7437L62.057 45.737Z" fill="white"/>
<path d="M94.6037 14.9578C94.6037 14.9578 94.6838 14.8975 94.6571 14.8707C94.6304 14.8506 94.577 14.9042 94.5637 14.9243C94.5503 14.9511 94.5837 14.9645 94.6037 14.9511V14.9578Z" fill="white"/>
<path d="M61.1761 20.0531C61.1761 20.0531 61.2361 20.0731 61.2495 20.0531C61.2628 20.0397 61.2495 20.0129 61.2361 20.0129C61.2161 20.0129 61.1694 20.0196 61.1761 20.0464V20.0531Z" fill="white"/>
<path d="M29.1234 32.7544C29.1234 32.7544 29.1234 32.7544 29.1234 32.7613C29.1234 32.7613 29.1234 32.7613 29.1234 32.7544C29.1234 32.7544 29.1234 32.7544 29.1165 32.7544H29.1234Z" fill="white"/>
<path d="M61.4497 20.0597C61.4363 20.0597 61.4363 20.0463 61.4297 20.033C61.4163 20.0196 61.3829 19.9727 61.3563 19.9861C61.3296 19.9995 61.3629 20.0463 61.3763 20.053C61.3829 20.0597 61.3763 20.053 61.3896 20.0597C61.3896 20.0597 61.403 20.0597 61.4096 20.0597C61.4163 20.0597 61.4096 20.0597 61.4163 20.0597C61.4163 20.0597 61.4163 20.0597 61.423 20.0597C61.423 20.0597 61.423 20.0597 61.4363 20.0597C61.4497 20.0597 61.4497 20.0597 61.4564 20.0597H61.4497Z" fill="white"/>
<path d="M96.5057 14.6297C96.5057 14.6297 96.4857 14.5761 96.4656 14.5895C96.4456 14.6029 96.4656 14.6431 96.4723 14.6498C96.4857 14.6632 96.499 14.6498 96.499 14.6297H96.5057Z" fill="white"/>
<path d="M17.2644 29.5808C17.2644 29.5808 17.231 29.554 17.211 29.554C17.191 29.554 17.1509 29.5674 17.1576 29.5942C17.1643 29.6276 17.211 29.641 17.2377 29.6343C17.2644 29.6343 17.2711 29.6009 17.2644 29.5741V29.5808Z" fill="white"/>
<path d="M13.4805 34.8836C13.4805 34.8836 13.4138 34.964 13.4404 34.9907C13.4671 35.0175 13.5139 34.9506 13.5339 34.9372C13.5472 34.9305 13.5472 34.9372 13.5539 34.9305C13.5539 34.9305 13.5606 34.9305 13.5472 34.9305C13.5339 34.9238 13.5139 34.8702 13.4872 34.8836H13.4805Z" fill="white"/>
<path d="M79.4749 24.298C79.4749 24.298 79.4749 24.2444 79.4415 24.2511C79.4081 24.2511 79.3948 24.3114 79.4281 24.3315C79.4615 24.3516 79.4749 24.3248 79.4749 24.298Z" fill="white"/>
<path d="M73.1884 23.903C73.1884 23.903 73.1817 23.8762 73.1617 23.8762C73.1417 23.8762 73.135 23.8829 73.1417 23.903C73.1483 23.9231 73.1817 23.9164 73.1884 23.903Z" fill="white"/>
<path d="M73.0015 24.0168C73.0015 24.0168 73.0216 23.9766 73.0015 23.9699C72.9815 23.9632 72.9749 23.9766 72.9749 23.99C72.9749 24.0034 72.9815 24.0235 73.0015 24.0168Z" fill="white"/>
<path d="M79.575 24.0704C79.575 24.0704 79.5549 24.0235 79.5349 24.0235C79.5149 24.0235 79.4815 24.0503 79.4949 24.0704C79.5082 24.0905 79.5616 24.0905 79.575 24.0704Z" fill="white"/>
</g>
<defs>
<clipPath id="clip0_16_294">
<rect width="104" height="65" fill="white"/>
</clipPath>
</defs>
</svg>
