<svg width="890" height="890" viewBox="0 0 890 890" fill="none" xmlns="http://www.w3.org/2000/svg">
<g clip-path="url(#clip0_762_3367)">
<rect width="890" height="890" fill="white"/>
<path d="M0 -67V957H1440V-67H0ZM285.35 781.36C285.35 794.57 274.64 805.28 261.42 805.28H162.73C149.52 805.28 138.81 794.57 138.81 781.36V598.81C138.81 585.59 149.52 574.88 162.73 574.88H261.42C274.64 574.88 285.35 585.59 285.35 598.81V781.36ZM285.35 536.28C285.35 549.49 274.64 560.2 261.42 560.2H162.73C149.52 560.2 138.81 549.49 138.81 536.28V353.72C138.81 340.51 149.52 329.8 162.73 329.8H261.42C274.64 329.8 285.35 340.51 285.35 353.72V536.28ZM285.35 291.19C285.35 304.41 274.64 315.12 261.42 315.12H162.73C149.52 315.12 138.81 304.41 138.81 291.19V108.64C138.81 95.43 149.52 84.72 162.73 84.72H261.42C274.64 84.72 285.35 95.43 285.35 108.64V291.19ZM446.29 781.36C446.29 794.57 435.58 805.28 422.37 805.28H323.67C310.46 805.28 299.75 794.57 299.75 781.36V598.81C299.75 585.59 310.46 574.88 323.67 574.88H422.37C435.58 574.88 446.29 585.59 446.29 598.81V781.36ZM446.29 536.28C446.29 549.49 435.58 560.2 422.37 560.2H323.67C310.46 560.2 299.75 549.49 299.75 536.28V353.72C299.75 340.51 310.46 329.8 323.67 329.8H422.37C435.58 329.8 446.29 340.51 446.29 353.72V536.28ZM446.29 291.19C446.29 304.41 435.58 315.12 422.37 315.12H323.67C310.46 315.12 299.75 304.41 299.75 291.19V108.64C299.75 95.43 310.46 84.72 323.67 84.72H422.37C435.58 84.72 446.29 95.43 446.29 108.64V291.19ZM607.23 781.36C607.23 794.57 596.52 805.28 583.31 805.28H484.61C471.4 805.28 460.69 794.57 460.69 781.36V598.81C460.69 585.59 471.4 574.88 484.61 574.88H583.31C596.52 574.88 607.23 585.59 607.23 598.81V781.36ZM607.23 536.28C607.23 549.49 596.52 560.2 583.31 560.2H484.61C471.4 560.2 460.69 549.49 460.69 536.28V353.72C460.69 340.51 471.4 329.8 484.61 329.8H583.31C596.52 329.8 607.23 340.51 607.23 353.72V536.28ZM607.23 291.19C607.23 304.41 596.52 315.12 583.31 315.12H484.61C471.4 315.12 460.69 304.41 460.69 291.19V108.64C460.69 95.43 471.4 84.72 484.61 84.72H583.31C596.52 84.72 607.23 95.43 607.23 108.64V291.19ZM768.17 781.36C768.17 794.57 757.46 805.28 744.25 805.28H645.56C632.34 805.28 621.63 794.57 621.63 781.36V598.81C621.63 585.59 632.34 574.88 645.56 574.88H744.25C757.46 574.88 768.17 585.59 768.17 598.81V781.36ZM768.17 536.28C768.17 549.49 757.46 560.2 744.25 560.2H645.56C632.34 560.2 621.63 549.49 621.63 536.28V353.72C621.63 340.51 632.34 329.8 645.56 329.8H744.25C757.46 329.8 768.17 340.51 768.17 353.72V536.28ZM768.17 291.19C768.17 304.41 757.46 315.12 744.25 315.12H645.56C632.34 315.12 621.63 304.41 621.63 291.19V108.64C621.63 95.43 632.34 84.72 645.56 84.72H744.25C757.46 84.72 768.17 95.43 768.17 108.64V291.19Z" fill="#D9D8D7"/>
</g>
<defs>
<clipPath id="clip0_762_3367">
<rect width="890" height="890" fill="white"/>
</clipPath>
</defs>
</svg>
